<svg preserveAspectRatio="none" width="100%" height="100%" overflow="visible" style="display: block;" viewBox="0 0 16 16" fill="none" xmlns="http://www.w3.org/2000/svg">
<g id="Vector">
<path d="M0.000374436 8.40095C1.56142 9.03624 2.984 9.95388 4.20026 11.0887C4.45003 11.3195 4.68891 11.5611 4.91967 11.8109C6.04362 13.0272 6.9531 14.4416 7.58294 16V8.40367H0.000374436V8.40095Z" fill="var(--fill-0, #F05647)"/>
<path d="M8.40113 0C9.0364 1.56108 9.95402 2.9837 11.0888 4.19998C11.3196 4.44976 11.5612 4.68864 11.811 4.91941C13.0272 6.04339 14.4417 6.95289 16 7.58275H8.40384V0H8.40113Z" fill="var(--fill-0, #F05647)"/>
<path d="M7.59887 0C6.9636 1.56108 6.04598 2.9837 4.91118 4.19998C4.68042 4.44976 4.43879 4.68864 4.18903 4.91941C2.97277 6.04339 1.55833 6.95289 0 7.58275H7.59616V0H7.59887Z" fill="var(--fill-0, #F05647)"/>
<path d="M15.9996 8.40095C14.4386 9.03624 13.016 9.95388 11.7997 11.0887C11.55 11.3195 11.3111 11.5611 11.0803 11.8109C9.95638 13.0272 9.0469 14.4416 8.41705 16V8.40367H15.9996V8.40095Z" fill="var(--fill-0, #F05647)"/>
</g>
</svg>
