<svg preserveAspectRatio="none" width="100%" height="100%" overflow="visible" style="display: block;" viewBox="0 0 20 20" fill="none" xmlns="http://www.w3.org/2000/svg">
<g id="Vector">
<path d="M0.000468045 10.5012C1.95177 11.2953 3.73 12.4424 5.25032 13.8609C5.56253 14.1493 5.86113 14.4514 6.14959 14.7636C7.55453 16.284 8.69137 18.052 9.47868 20V10.5046H0.000468045V10.5012Z" fill="var(--fill-0, #F05647)"/>
<path d="M10.5014 0C11.2955 1.95135 12.4425 3.72962 13.861 5.24998C14.1495 5.5622 14.4515 5.8608 14.7637 6.14926C16.284 7.55423 18.0521 8.69111 20 9.47843H10.5048V0H10.5014Z" fill="var(--fill-0, #F05647)"/>
<path d="M9.49859 0C8.7045 1.95135 7.55747 3.72962 6.13897 5.24998C5.85052 5.5622 5.54849 5.8608 5.23628 6.14926C3.71596 7.55423 1.94791 8.69111 0 9.47843H9.4952V0H9.49859Z" fill="var(--fill-0, #F05647)"/>
<path d="M19.9995 10.5012C18.0482 11.2953 16.27 12.4424 14.7497 13.8609C14.4375 14.1493 14.1389 14.4514 13.8504 14.7636C12.4455 16.284 11.3086 18.052 10.5213 20V10.5046H19.9995V10.5012Z" fill="var(--fill-0, #F05647)"/>
</g>
</svg>
