<svg preserveAspectRatio="none" width="100%" height="100%" overflow="visible" style="display: block;" viewBox="0 0 15 15" fill="none" xmlns="http://www.w3.org/2000/svg">
<g id="Icon">
<path id="Vector" d="M5.36133 9.99023H8.32031V8.4668H8.36426C8.56934 8.83789 8.9209 9.18457 9.41895 9.50684C9.91699 9.8291 10.542 9.99023 11.2939 9.99023C12.0752 9.99023 12.71 9.87793 13.1982 9.65332C13.6768 9.41895 14.0503 9.10156 14.3188 8.70117C14.5874 8.30078 14.7656 7.82715 14.8535 7.28027C14.9512 6.7334 15 6.14258 15 5.50781V0.351562H11.9092V4.92188C11.9092 5.46875 11.8384 6.02051 11.6968 6.57715C11.5552 7.13379 11.0889 7.41211 10.2979 7.41211C9.49707 7.41211 8.98926 7.16309 8.77441 6.66504C8.55957 6.16699 8.45215 5.61035 8.45215 4.99512V0.351562H5.36133V9.99023ZM0 9.99023H3.20801V0.351562H0V9.99023ZM3.20801 12.6709C3.20801 12.2217 3.05176 11.8408 2.73926 11.5283C2.42676 11.2158 2.05078 11.0596 1.61133 11.0596C1.16211 11.0596 0.78125 11.2158 0.46875 11.5283C0.15625 11.8408 0 12.2217 0 12.6709C0 13.1104 0.15625 13.4888 0.46875 13.8062C0.78125 14.1235 1.16211 14.2822 1.61133 14.2822C2.05078 14.2822 2.42676 14.1235 2.73926 13.8062C3.05176 13.4888 3.20801 13.1104 3.20801 12.6709Z" fill="var(--fill-0, white)"/>
</g>
</svg>
