<svg preserveAspectRatio="none" width="100%" height="100%" overflow="visible" style="display: block;" viewBox="0 0 15 15.1904" fill="none" xmlns="http://www.w3.org/2000/svg">
<g id="Icon">
<path id="Vector" d="M7.5 13.6523C8.50586 13.6523 9.16504 13.6499 9.47754 13.645C9.79004 13.6401 10.1416 13.6279 10.5322 13.6084C10.9033 13.5889 11.1963 13.5547 11.4111 13.5059C11.626 13.457 11.7969 13.4033 11.9238 13.3447C12.0996 13.2764 12.2559 13.2007 12.3926 13.1177C12.5293 13.0347 12.6611 12.9248 12.7881 12.7881C12.915 12.6611 13.0225 12.5293 13.1104 12.3926C13.1982 12.2559 13.2764 12.0996 13.3447 11.9238C13.4033 11.7969 13.457 11.626 13.5059 11.4111C13.5547 11.1963 13.5889 10.9033 13.6084 10.5322C13.6279 10.1416 13.6401 9.79004 13.645 9.47754C13.6499 9.16504 13.6523 8.51074 13.6523 7.51465C13.6523 6.50879 13.6499 5.84961 13.645 5.53711C13.6401 5.22461 13.6279 4.87305 13.6084 4.48242C13.5889 4.11133 13.5547 3.81836 13.5059 3.60352C13.457 3.38867 13.4033 3.21777 13.3447 3.09082C13.2764 2.91504 13.2007 2.75879 13.1177 2.62207C13.0347 2.48535 12.9248 2.35352 12.7881 2.22656C12.6611 2.08984 12.5293 1.97754 12.3926 1.88965C12.2559 1.80176 12.0996 1.72363 11.9238 1.65527C11.7969 1.60645 11.626 1.55518 11.4111 1.50146C11.1963 1.44775 10.9033 1.41602 10.5322 1.40625C10.1416 1.38672 9.79004 1.37451 9.47754 1.36963C9.16504 1.36475 8.51074 1.3623 7.51465 1.3623C6.50879 1.3623 5.84961 1.36475 5.53711 1.36963C5.22461 1.37451 4.87305 1.38672 4.48242 1.40625C4.11133 1.41602 3.81836 1.44775 3.60352 1.50146C3.38867 1.55518 3.21777 1.60645 3.09082 1.65527C2.91504 1.72363 2.75879 1.80176 2.62207 1.88965C2.48535 1.97754 2.35352 2.08984 2.22656 2.22656C2.08984 2.35352 1.97754 2.48535 1.88965 2.62207C1.80176 2.75879 1.72363 2.91016 1.65527 3.07617C1.60645 3.21289 1.55518 3.38867 1.50146 3.60352C1.44775 3.81836 1.41602 4.10645 1.40625 4.46777C1.38672 4.86816 1.37451 5.22461 1.36963 5.53711C1.36475 5.84961 1.3623 6.50391 1.3623 7.5C1.3623 8.50586 1.36475 9.16504 1.36963 9.47754C1.37451 9.79004 1.38672 10.1416 1.40625 10.5322C1.41602 10.9033 1.44775 11.1963 1.50146 11.4111C1.55518 11.626 1.60645 11.7969 1.65527 11.9238C1.72363 12.0996 1.80176 12.2559 1.88965 12.3926C1.97754 12.5293 2.08984 12.6611 2.22656 12.7881C2.35352 12.915 2.48535 13.0225 2.62207 13.1104C2.75879 13.1982 2.91016 13.2764 3.07617 13.3447C3.21289 13.4033 3.38867 13.457 3.60352 13.5059C3.81836 13.5547 4.10645 13.5889 4.46777 13.6084C4.86816 13.6279 5.22461 13.6401 5.53711 13.645C5.84961 13.6499 6.50391 13.6523 7.5 13.6523ZM7.5 15C6.48437 15 5.81543 14.9976 5.49316 14.9927C5.1709 14.9878 4.80957 14.9756 4.40918 14.9561C4.00879 14.9365 3.66455 14.8975 3.37646 14.8389C3.08838 14.7803 2.82715 14.7021 2.59277 14.6045C2.34863 14.5068 2.11914 14.3921 1.9043 14.2603C1.68945 14.1284 1.47461 13.9551 1.25977 13.7402C1.05469 13.5352 0.883789 13.3252 0.74707 13.1104C0.610352 12.8955 0.493164 12.666 0.395508 12.4219C0.307617 12.1777 0.231934 11.9116 0.168457 11.6235C0.10498 11.3354 0.0634766 10.9912 0.0439453 10.5908C0.0244141 10.1904 0.012207 9.8291 0.00732422 9.50684C0.00244141 9.18457 0 8.51563 0 7.5C0 6.48437 0.00244141 5.81543 0.00732422 5.49316C0.012207 5.1709 0.0244141 4.80957 0.0439453 4.40918C0.0634766 4.00879 0.10498 3.66455 0.168457 3.37646C0.231934 3.08838 0.307617 2.82715 0.395508 2.59277C0.493164 2.33887 0.610352 2.10449 0.74707 1.88965C0.883789 1.6748 1.05469 1.46484 1.25977 1.25977C1.47461 1.05469 1.68945 0.883789 1.9043 0.74707C2.11914 0.610352 2.34863 0.493164 2.59277 0.395508C2.82715 0.307617 3.08838 0.231934 3.37646 0.168457C3.66455 0.10498 4.00879 0.0634766 4.40918 0.0439453C4.80957 0.0244141 5.1709 0.012207 5.49316 0.00732422C5.81543 0.00244141 6.48437 0 7.5 0C8.51563 0 9.18457 0.00244141 9.50684 0.00732422C9.8291 0.012207 10.1904 0.0244141 10.5908 0.0439453C10.9912 0.0634766 11.3354 0.10498 11.6235 0.168457C11.9116 0.231934 12.1729 0.307617 12.4072 0.395508C12.6611 0.493164 12.8955 0.610352 13.1104 0.74707C13.3252 0.883789 13.5352 1.05469 13.7402 1.25977C13.9453 1.46484 14.1162 1.6748 14.2529 1.88965C14.3896 2.10449 14.5068 2.33887 14.6045 2.59277C14.6924 2.82715 14.7681 3.08838 14.8315 3.37646C14.895 3.66455 14.9365 4.00879 14.9561 4.40918C14.9756 4.80957 14.9878 5.1709 14.9927 5.49316C14.9976 5.81543 15 6.48437 15 7.5C15 8.51563 14.9976 9.18457 14.9927 9.50684C14.9878 9.8291 14.9756 10.1904 14.9561 10.5908C14.9365 10.9912 14.895 11.3354 14.8315 11.6235C14.7681 11.9116 14.6924 12.1729 14.6045 12.4072C14.5166 12.6611 14.4043 12.8955 14.2676 13.1104C14.1309 13.3252 13.9551 13.5352 13.7402 13.7402C13.5352 13.9453 13.3252 14.1162 13.1104 14.2529C12.8955 14.3896 12.666 14.5068 12.4219 14.6045C12.1777 14.7021 11.9116 14.7803 11.6235 14.8389C11.3354 14.8975 10.9961 14.9365 10.6055 14.9561C10.1953 14.9756 9.83154 14.9878 9.51416 14.9927C9.19678 14.9976 8.52539 15 7.5 15ZM7.5 11.3525C6.97266 11.3525 6.47461 11.25 6.00586 11.0449C5.53711 10.8496 5.12939 10.5762 4.78271 10.2246C4.43604 9.87305 4.16016 9.46289 3.95508 8.99414C3.75 8.53516 3.64746 8.03711 3.64746 7.5C3.64746 6.97266 3.75 6.47461 3.95508 6.00586C4.16016 5.53711 4.43604 5.12695 4.78271 4.77539C5.12939 4.42383 5.53711 4.15039 6.00586 3.95508C6.47461 3.75 6.97266 3.64746 7.5 3.64746C8.03711 3.64746 8.54004 3.75 9.00879 3.95508C9.47754 4.15039 9.88525 4.42383 10.2319 4.77539C10.5786 5.12695 10.8545 5.53711 11.0596 6.00586C11.2549 6.47461 11.3525 6.97266 11.3525 7.5C11.3525 8.03711 11.2549 8.53516 11.0596 8.99414C10.8545 9.46289 10.5786 9.87305 10.2319 10.2246C9.88525 10.5762 9.47754 10.8496 9.00879 11.0449C8.54004 11.25 8.03711 11.3525 7.5 11.3525ZM7.5 4.99512C6.81641 4.99512 6.23047 5.23926 5.74219 5.72754C5.25391 6.21582 5.00977 6.80664 5.00977 7.5C5.00977 8.19336 5.25391 8.78418 5.74219 9.27246C6.23047 9.76074 6.81641 10.0049 7.5 10.0049C8.19336 10.0049 8.78418 9.76074 9.27246 9.27246C9.76074 8.78418 10.0049 8.19336 10.0049 7.5C10.0049 6.80664 9.76074 6.21582 9.27246 5.72754C8.78418 5.23926 8.19336 4.99512 7.5 4.99512ZM12.4072 11.5137C12.4072 11.2598 12.3193 11.0449 12.1436 10.8691C11.9678 10.6934 11.7578 10.6055 11.5137 10.6055C11.2598 10.6055 11.0449 10.6934 10.8691 10.8691C10.6934 11.0449 10.6055 11.2598 10.6055 11.5137C10.6055 11.7578 10.6934 11.9678 10.8691 12.1436C11.0449 12.3193 11.2598 12.4072 11.5137 12.4072C11.7578 12.4072 11.9678 12.3193 12.1436 12.1436C12.3193 11.9678 12.4072 11.7578 12.4072 11.5137Z" fill="var(--fill-0, white)"/>
</g>
</svg>
