<svg preserveAspectRatio="none" width="100%" height="100%" overflow="visible" style="display: block;" viewBox="0 0 15 15" fill="none" xmlns="http://www.w3.org/2000/svg">
<g id="Icon">
<path id="Vector" d="M7.54395 12.7734H7.63184C7.82715 12.7734 8.18359 12.7686 8.70117 12.7588C9.22852 12.749 9.79248 12.7344 10.3931 12.7148C10.9937 12.6953 11.5723 12.666 12.1289 12.627C12.6855 12.5781 13.0957 12.5195 13.3594 12.4512C13.5156 12.4121 13.667 12.3511 13.8135 12.2681C13.96 12.1851 14.0869 12.085 14.1943 11.9678C14.3115 11.8506 14.4116 11.7212 14.4946 11.5796C14.5776 11.438 14.6436 11.2842 14.6924 11.1182C14.7314 10.9424 14.7681 10.7422 14.8022 10.5176C14.8364 10.293 14.8682 10.0586 14.8975 9.81445V9.71191L14.9268 9.46289V9.375C14.9561 8.94531 14.9756 8.55225 14.9854 8.1958C14.9951 7.83936 15 7.61719 15 7.5293V7.4707C15 7.37305 14.9951 7.13623 14.9854 6.76025C14.9756 6.38428 14.9561 5.97656 14.9268 5.53711L14.9121 5.43457V5.33203C14.8828 5.06836 14.8511 4.80957 14.8169 4.55566C14.7827 4.30176 14.7412 4.07715 14.6924 3.88184C14.6436 3.71582 14.5776 3.56201 14.4946 3.42041C14.4116 3.27881 14.3115 3.14941 14.1943 3.03223C14.0869 2.91504 13.96 2.81494 13.8135 2.73193C13.667 2.64893 13.5156 2.58789 13.3594 2.54883C13.0859 2.4707 12.6562 2.41211 12.0703 2.37305C11.4941 2.33398 10.896 2.30225 10.2759 2.27783C9.65576 2.25342 9.08203 2.24121 8.55469 2.24121C8.03711 2.23145 7.70996 2.22656 7.57324 2.22656H7.42676C7.29004 2.22656 6.95557 2.229 6.42334 2.23389C5.89111 2.23877 5.3125 2.25586 4.6875 2.28516H4.52637H4.45312L4.13086 2.2998C3.60352 2.3291 3.11279 2.36328 2.65869 2.40234C2.20459 2.44141 1.86523 2.49023 1.64062 2.54883C1.48437 2.58789 1.33301 2.64893 1.18652 2.73193C1.04004 2.81494 0.908203 2.91504 0.791016 3.03223C0.683594 3.14941 0.588379 3.27881 0.505371 3.42041C0.422363 3.56201 0.356445 3.71582 0.307617 3.88184C0.258789 4.07715 0.217285 4.30176 0.183105 4.55566C0.148926 4.80957 0.117188 5.06836 0.0878906 5.33203V5.43457L0.0732422 5.53711C0.0537109 5.84961 0.0366211 6.16455 0.0219727 6.48193C0.00732422 6.79932 0 7.11914 0 7.44141V7.55859C0 7.65625 0.00488281 7.86133 0.0146484 8.17383C0.0244141 8.48633 0.0390625 8.83789 0.0585938 9.22852L0.0732422 9.31641V9.375V9.46289L0.102539 9.71191V9.81445C0.131836 10.0586 0.163574 10.293 0.197754 10.5176C0.231934 10.7422 0.268555 10.9424 0.307617 11.1182C0.356445 11.2842 0.422363 11.438 0.505371 11.5796C0.588379 11.7212 0.688477 11.8506 0.805664 11.9678C0.913086 12.085 1.04004 12.1851 1.18652 12.2681C1.33301 12.3511 1.48437 12.4121 1.64062 12.4512C1.86523 12.5098 2.20703 12.5586 2.66602 12.5977C3.125 12.6367 3.61328 12.6709 4.13086 12.7002H4.29199L4.52637 12.7148H4.6875C5.13672 12.7344 5.5835 12.7466 6.02783 12.7515C6.47217 12.7563 6.91895 12.7637 7.36816 12.7734H7.54395ZM6.00586 9.75586V5.24414L9.90234 7.5L6.00586 9.75586Z" fill="var(--fill-0, white)"/>
</g>
</svg>
