<svg preserveAspectRatio="none" width="100%" height="100%" overflow="visible" style="display: block;" viewBox="0 0 277.231 26.3107" fill="none" xmlns="http://www.w3.org/2000/svg">
<g id="SVG">
<path id="Vector" d="M7.80411 9.77148H0.128832C5.44625 11.2636 9.63997 15.4573 11.1259 20.7931V13.1056C10.1066 11.9083 8.99531 10.7969 7.80411 9.77148Z" fill="var(--fill-0, #E8ECF4)"/>
<path id="Vector_2" d="M0 3.69231C3.53062 5.12911 6.74808 7.2045 9.49889 9.77108C10.0638 10.293 10.6041 10.8395 11.126 11.4044C13.668 14.1552 15.725 17.3542 17.1495 20.8787V3.69845H0V3.69231Z" fill="var(--fill-0, #E8ECF4)"/>
<g id="Frame 73">
<path id="Vector_3" d="M26.1542 3.8623H30.79C34.3513 3.8623 36.8012 5.01666 36.8012 8.17886C36.8012 10.5367 35.4258 11.7156 33.2645 12.256V12.3051C35.5977 12.5016 37.2433 14.0243 37.2433 16.4313C37.2433 20.1154 34.1978 20.9996 30.7163 20.9996H26.1542V3.86843V3.8623ZM28.6103 11.1753H29.9611C32.3435 11.1753 34.3574 10.9542 34.3574 8.42447C34.3574 6.38592 32.6137 5.87014 31.1891 5.87014H28.6103V11.1692V11.1753ZM28.6103 18.9795H30.4524C32.6628 18.9795 34.6521 18.5128 34.6521 16.2041C34.6521 13.5515 32.3189 13.1831 30.2128 13.1831H28.6164V18.9733L28.6103 18.9795Z" fill="var(--fill-0, #E8ECF4)"/>
<path id="Vector_4" d="M39.4843 8.47343H41.6457V10.4138H41.6947C42.3087 9.11203 43.635 8.17871 44.9613 8.17871C45.649 8.17871 45.9929 8.25239 46.4841 8.35064V10.4138C46.0665 10.2418 45.6 10.1927 45.207 10.1927C43.1439 10.1927 41.793 12.1576 41.793 15.2952V20.9872H39.4843V8.4673V8.47343Z" fill="var(--fill-0, #E8ECF4)"/>
<path id="Vector_5" d="M59.1195 20.9932H56.8844V19.0038H56.8354C56.1477 20.4283 54.4775 21.288 52.7337 21.288C49.4916 21.288 48.0488 19.274 48.0488 15.9153V8.47949H50.3575V14.9574C50.3575 17.8802 50.9961 19.3047 53.01 19.4275C55.638 19.4275 56.817 17.3153 56.817 14.2697V8.47949H59.1257V20.9994L59.1195 20.9932Z" fill="var(--fill-0, #E8ECF4)"/>
<path id="Vector_6" d="M70.0183 10.5854C69.1341 10.217 68.2499 10.0451 67.5131 10.0451C64.9342 10.0451 63.4851 12.3538 63.4851 14.7362C63.4851 16.9712 64.6886 19.4211 67.6604 19.4211C68.4464 19.4211 69.4288 19.1755 70.1411 18.7089L70.313 20.772C69.3551 21.2141 68.2499 21.2878 67.4148 21.2878C63.6324 21.2878 61.0351 18.3159 61.0351 14.7362C61.0351 10.9292 63.5895 8.18457 67.4148 8.18457C68.3481 8.18457 69.5516 8.40563 70.2147 8.67579L70.0183 10.5915V10.5854Z" fill="var(--fill-0, #E8ECF4)"/>
<path id="Vector_7" d="M71.9846 2.58425H74.2933V10.2656H74.3424C75.1775 8.93936 76.6266 8.17798 78.3704 8.17798C81.6124 8.17798 83.0554 10.192 83.0554 13.5507V20.9864H80.7466V14.5085C80.7466 11.5858 80.1081 10.1613 78.0941 10.0446C75.4661 10.0446 74.2872 12.1568 74.2872 15.1962V20.9864H71.9784V2.57812L71.9846 2.58425Z" fill="var(--fill-0, #E8ECF4)"/>
<path id="Vector_8" d="M91.5456 8.17871C95.3525 8.17871 97.9007 10.9295 97.9007 14.7303C97.9007 18.31 95.2973 21.2819 91.5456 21.2819C87.7939 21.2819 85.1659 18.31 85.1659 14.7303C85.1659 10.9234 87.7203 8.17871 91.5456 8.17871ZM91.5456 19.4214C94.2473 19.4214 95.4508 16.9653 95.4508 14.7365C95.4508 12.3541 94.0017 10.0453 91.5456 10.0453C89.0895 10.0453 87.6159 12.3541 87.6159 14.7365C87.6159 16.9715 88.8194 19.4214 91.5456 19.4214Z" fill="var(--fill-0, #E8ECF4)"/>
<path id="Vector_9" d="M111.084 20.9932H108.849V19.0038H108.8C108.113 20.4283 106.442 21.288 104.699 21.288C101.457 21.288 100.014 19.274 100.014 15.9153V8.47949H102.322V14.9574C102.322 17.8802 102.961 19.3047 104.975 19.4275C107.603 19.4275 108.782 17.3153 108.782 14.2697V8.47949H111.091V20.9994L111.084 20.9932Z" fill="var(--fill-0, #E8ECF4)"/>
<path id="Vector_10" d="M128.209 3.73242H137.315V5.89378H130.665V10.898H137.02V13.0594H130.665V20.8636H128.209V3.73242Z" fill="var(--fill-0, #E8ECF4)"/>
<path id="Vector_11" d="M150.498 20.8643H148.263V18.8749H148.214C147.527 20.2994 145.856 21.159 144.113 21.159C140.871 21.159 139.428 19.145 139.428 15.7864V8.35059H141.736V14.8285C141.736 17.7512 142.375 19.1757 144.389 19.2986C147.017 19.2986 148.196 17.1863 148.196 14.1469V8.35673H150.505V20.8766L150.498 20.8643Z" fill="var(--fill-0, #E8ECF4)"/>
<path id="Vector_12" d="M153.446 8.34452H155.681V10.3339H155.73C156.417 8.90941 158.088 8.0498 159.831 8.0498C163.073 8.0498 164.516 10.0638 164.516 13.4225V20.8582H162.208V14.3803C162.208 11.4576 161.569 10.0331 159.555 9.91027C156.927 9.91027 155.748 12.0225 155.748 15.068V20.8582H153.439V8.33838L153.446 8.34452Z" fill="var(--fill-0, #E8ECF4)"/>
<path id="Vector_13" d="M177.055 20.3483C176.171 20.6676 175.164 21.1588 173.101 21.1588C168.655 21.1588 166.623 18.4571 166.623 14.3861C166.623 10.6775 168.956 8.05562 172.487 8.05562C176.662 8.05562 178.007 11.1012 178.007 15.123H169.073C169.073 17.6037 171.013 19.2983 173.193 19.2983C174.716 19.2983 176.484 18.5124 177.049 18.0458V20.3544L177.055 20.3483ZM175.557 13.4037C175.557 11.488 174.427 9.91607 172.438 9.91607C170.178 9.91607 169.245 11.7827 169.073 13.4037H175.551H175.557Z" fill="var(--fill-0, #E8ECF4)"/>
<path id="Vector_14" d="M179.192 18.4083C180.101 18.9978 181.403 19.2925 182.066 19.2925C183.122 19.2925 184.424 18.8504 184.424 17.4996C184.424 15.2154 179.002 15.4119 179.002 11.9058C179.002 9.30239 180.942 8.0498 183.423 8.0498C184.504 8.0498 185.388 8.27085 186.296 8.54102L186.1 10.555C185.584 10.2357 184.209 9.91641 183.668 9.91641C182.49 9.91641 181.458 10.4076 181.458 11.4392C181.458 13.9935 186.88 13.2567 186.88 17.2539C186.88 19.9311 184.743 21.1591 182.514 21.1591C181.335 21.1591 180.132 21.0363 179.076 20.4714L179.198 18.4083H179.192Z" fill="var(--fill-0, #E8ECF4)"/>
<path id="Vector_15" d="M203.396 19.0957H203.347C202.733 20.029 201.309 21.1588 199.074 21.1588C195.291 21.1588 193.701 17.794 193.701 14.3861C193.701 10.9783 195.469 8.05562 199.098 8.05562C201.284 8.05562 202.537 8.91522 203.249 10.0696H203.298V2.4619H205.607V20.8702H203.396V19.1019V19.0957ZM199.614 19.2922C202.218 19.2922 203.298 16.7133 203.298 14.6257C203.298 12.2924 202.095 9.91607 199.59 9.91607C197.084 9.91607 196.102 12.2739 196.151 14.5581C196.102 16.5229 197.133 19.2922 199.614 19.2922Z" fill="var(--fill-0, #E8ECF4)"/>
<path id="Vector_16" d="M218.145 20.3484C217.261 20.6677 216.254 21.1588 214.191 21.1588C209.745 21.1588 207.713 18.4571 207.713 14.3862C207.713 10.6775 210.046 8.05566 213.577 8.05566C217.752 8.05566 219.097 11.1012 219.097 15.1231H210.163C210.163 17.6037 212.103 19.2983 214.283 19.2983C215.806 19.2983 217.574 18.5125 218.139 18.0458V20.3545L218.145 20.3484ZM216.647 13.4038C216.647 11.488 215.517 9.91612 213.528 9.91612C211.268 9.91612 210.335 11.7827 210.163 13.4038H216.641H216.647Z" fill="var(--fill-0, #E8ECF4)"/>
<path id="Vector_17" d="M227.135 3.73242H231.329C234.718 3.73242 237.979 4.27278 237.979 8.37443C237.979 10.4621 236.432 11.9357 234.442 12.2796V12.3287C235.203 12.6234 235.572 12.9918 236.112 14.048L239.354 20.8697H236.554L233.926 14.9321C233.165 13.262 232.354 13.262 231.053 13.262H229.579V20.8697H227.123V3.73857L227.135 3.73242ZM229.591 11.0945H231.679C234.012 11.0945 235.388 10.063 235.388 8.4174C235.388 6.87007 234.209 5.88764 231.949 5.88764H229.591V11.0884V11.0945Z" fill="var(--fill-0, #E8ECF4)"/>
<path id="Vector_18" d="M243.824 5.55072H241.221V2.94727H243.824V5.55072ZM241.368 8.35065H243.677V20.8705H241.368V8.35065Z" fill="var(--fill-0, #E8ECF4)"/>
<path id="Vector_19" d="M252.464 8.0498C256.271 8.0498 258.819 10.8006 258.819 14.6014C258.819 18.1811 256.215 21.153 252.464 21.153C248.712 21.153 246.084 18.1811 246.084 14.6014C246.084 10.7945 248.638 8.0498 252.464 8.0498ZM252.464 19.2925C255.165 19.2925 256.369 16.8364 256.369 14.6075C256.369 12.2251 254.92 9.91641 252.464 9.91641C250.008 9.91641 248.534 12.2251 248.534 14.6075C248.534 16.8426 249.737 19.2925 252.464 19.2925Z" fill="var(--fill-0, #E8ECF4)"/>
<path id="Vector_20" d="M258.652 24.2292C258.946 24.2783 259.143 24.3029 259.585 24.3029C260.666 24.3029 261.231 23.2713 261.231 21.6503V8.34451H263.539V21.3065C263.539 23.124 263.466 26.3107 260.003 26.3107C259.511 26.3107 258.897 26.2862 258.578 26.2125L258.652 24.2231V24.2292ZM263.681 5.55072H261.077V2.94727H263.681V5.55072Z" fill="var(--fill-0, #E8ECF4)"/>
<path id="Vector_21" d="M267.364 9.22871C268.519 8.54101 269.894 8.0498 271.49 8.0498C275.076 8.0498 276.519 9.81816 276.519 13.226V18.4022C276.519 19.8267 276.568 20.4898 276.617 20.8582H274.456V19.2372H274.407C273.867 19.9986 272.639 21.153 270.526 21.153C267.825 21.153 265.934 19.9741 265.934 17.2478C265.934 14.104 269.372 13.1216 271.748 13.1216C272.657 13.1216 273.296 13.1216 274.204 13.1707C274.204 11.0094 273.418 9.90413 271.11 9.90413C269.808 9.90413 268.408 10.3953 267.475 11.1813L267.352 9.21642L267.364 9.22871ZM274.21 14.8961C273.719 14.8961 273.228 14.847 272.737 14.847C271.484 14.847 268.39 15.0435 268.39 17.2539C268.39 18.5802 269.667 19.2925 270.723 19.2925C273.007 19.2925 274.21 17.868 274.21 16.0013V14.8961Z" fill="var(--fill-0, #E8ECF4)"/>
<path id="Vector_22" d="M120.927 16.0374C121.32 15.4786 121.461 14.8216 121.461 14.1585H121.996C121.996 14.9567 121.762 15.7734 121.302 16.3935L122.358 17.5356H121.578L120.921 16.8418C120.417 17.4067 119.767 17.6584 119.042 17.6584C117.998 17.6584 117.01 17.1242 117.01 15.9269C117.01 14.9751 117.648 14.4471 118.471 14.1278C118.09 13.6918 117.667 13.2252 117.667 12.5989C117.667 11.7147 118.52 11.248 119.337 11.248C120.074 11.248 120.792 11.6533 120.792 12.5252C120.792 13.4954 120.049 13.8392 119.3 14.2138L120.933 16.0313L120.927 16.0374ZM118.778 14.4778C118.195 14.7111 117.618 15.2208 117.618 15.9085C117.618 16.7497 118.311 17.1856 119.054 17.1856C119.613 17.1856 120.227 16.9032 120.583 16.4672L118.784 14.4778H118.778ZM118.975 13.9006C119.515 13.6427 120.172 13.3603 120.172 12.6296C120.172 12.0463 119.816 11.7331 119.294 11.7331C118.772 11.7331 118.275 12.034 118.275 12.6357C118.275 13.1208 118.637 13.5261 118.975 13.8945" fill="var(--fill-0, #E8ECF4)"/>
</g>
</g>
</svg>
