<svg preserveAspectRatio="none" width="100%" height="100%" overflow="visible" style="display: block;" viewBox="0 0 277.231 26.3101" fill="none" xmlns="http://www.w3.org/2000/svg">
<g id="SVG">
<path id="Vector" d="M7.80411 9.77112H0.128832C5.44625 11.2632 9.63997 15.4569 11.1259 20.7928V13.1052C10.1066 11.9079 8.99531 10.7965 7.80411 9.77112Z" fill="var(--fill-0, #FBFAF8)"/>
<path id="Vector_2" d="M0 3.69231C3.53062 5.12911 6.74808 7.2045 9.49889 9.77108C10.0638 10.293 10.6041 10.8395 11.126 11.4044C13.668 14.1552 15.725 17.3542 17.1495 20.8787V3.69845H0V3.69231Z" fill="var(--fill-0, #FBFAF8)"/>
<g id="Frame 73">
<path id="Vector_3" d="M26.1542 3.86151H30.79C34.3513 3.86151 36.8012 5.01586 36.8012 8.17807C36.8012 10.5359 35.4258 11.7148 33.2645 12.2552V12.3043C35.5977 12.5008 37.2433 14.0236 37.2433 16.4305C37.2433 20.1146 34.1978 20.9988 30.7163 20.9988H26.1542V3.86763V3.86151ZM28.6103 11.1745H29.9611C32.3435 11.1745 34.3574 10.9535 34.3574 8.42367C34.3574 6.38513 32.6137 5.86935 31.1891 5.86935H28.6103V11.1684V11.1745ZM28.6103 18.9787H30.4524C32.6628 18.9787 34.6521 18.512 34.6521 16.2033C34.6521 13.5508 32.3189 13.1823 30.2128 13.1823H28.6164V18.9726L28.6103 18.9787Z" fill="var(--fill-0, #FBFAF8)"/>
<path id="Vector_4" d="M39.4843 8.47276H41.6457V10.4131H41.6947C42.3087 9.11136 43.635 8.17804 44.9613 8.17804C45.649 8.17804 45.9929 8.25172 46.4841 8.34997V10.4131C46.0665 10.2412 45.6 10.192 45.207 10.192C43.1439 10.192 41.793 12.1569 41.793 15.2945V20.9865H39.4843V8.46663V8.47276Z" fill="var(--fill-0, #FBFAF8)"/>
<path id="Vector_5" d="M59.1195 20.9926H56.8844V19.0032H56.8354C56.1477 20.4277 54.4775 21.2874 52.7337 21.2874C49.4916 21.2874 48.0488 19.2734 48.0488 15.9147V8.47888H50.3575V14.9568C50.3575 17.8795 50.9961 19.3041 53.01 19.4269C55.638 19.4269 56.817 17.3146 56.817 14.2691V8.47888H59.1257V20.9988L59.1195 20.9926Z" fill="var(--fill-0, #FBFAF8)"/>
<path id="Vector_6" d="M70.0183 10.585C69.1341 10.2166 68.2499 10.0447 67.5131 10.0447C64.9342 10.0447 63.4851 12.3534 63.4851 14.7358C63.4851 16.9708 64.6886 19.4208 67.6604 19.4208C68.4464 19.4208 69.4288 19.1752 70.1411 18.7085L70.313 20.7716C69.3551 21.2137 68.2499 21.2874 67.4148 21.2874C63.6324 21.2874 61.0351 18.3155 61.0351 14.7358C61.0351 10.9289 63.5895 8.1842 67.4148 8.1842C68.3481 8.1842 69.5516 8.40526 70.2147 8.67542L70.0183 10.5912V10.585Z" fill="var(--fill-0, #FBFAF8)"/>
<path id="Vector_7" d="M71.9846 2.58437H74.2933V10.2658H74.3424C75.1775 8.93948 76.6266 8.1781 78.3704 8.1781C81.6124 8.1781 83.0554 10.1921 83.0554 13.5508V20.9866H80.7466V14.5086C80.7466 11.5859 80.1081 10.1614 78.0941 10.0447C75.4661 10.0447 74.2872 12.1569 74.2872 15.1963V20.9866H71.9784V2.57825L71.9846 2.58437Z" fill="var(--fill-0, #FBFAF8)"/>
<path id="Vector_8" d="M91.5456 8.17804C95.3525 8.17804 97.9007 10.9289 97.9007 14.7296C97.9007 18.3094 95.2973 21.2812 91.5456 21.2812C87.7939 21.2812 85.1659 18.3094 85.1659 14.7296C85.1659 10.9227 87.7203 8.17804 91.5456 8.17804ZM91.5456 19.4208C94.2473 19.4208 95.4508 16.9647 95.4508 14.7358C95.4508 12.3534 94.0017 10.0447 91.5456 10.0447C89.0895 10.0447 87.6159 12.3534 87.6159 14.7358C87.6159 16.9708 88.8194 19.4208 91.5456 19.4208Z" fill="var(--fill-0, #FBFAF8)"/>
<path id="Vector_9" d="M111.084 20.9926H108.849V19.0032H108.8C108.113 20.4277 106.442 21.2874 104.699 21.2874C101.457 21.2874 100.014 19.2734 100.014 15.9147V8.47888H102.322V14.9568C102.322 17.8795 102.961 19.3041 104.975 19.4269C107.603 19.4269 108.782 17.3146 108.782 14.2691V8.47888H111.091V20.9988L111.084 20.9926Z" fill="var(--fill-0, #FBFAF8)"/>
<path id="Vector_10" d="M128.209 3.73254H137.315V5.89391H130.665V10.8982H137.02V13.0595H130.665V20.8637H128.209V3.73254Z" fill="var(--fill-0, #FBFAF8)"/>
<path id="Vector_11" d="M150.498 20.8637H148.263V18.8743H148.214C147.527 20.2988 145.856 21.1584 144.113 21.1584C140.871 21.1584 139.428 19.1444 139.428 15.7857V8.34997H141.736V14.8279C141.736 17.7506 142.375 19.1751 144.389 19.2979C147.017 19.2979 148.196 17.1857 148.196 14.1463V8.35611H150.505V20.876L150.498 20.8637Z" fill="var(--fill-0, #FBFAF8)"/>
<path id="Vector_12" d="M153.446 8.34385H155.681V10.3333H155.73C156.417 8.90874 158.088 8.04913 159.831 8.04913C163.073 8.04913 164.516 10.0631 164.516 13.4218V20.8576H162.208V14.3797C162.208 11.4569 161.569 10.0324 159.555 9.9096C156.927 9.9096 155.748 12.0218 155.748 15.0674V20.8576H153.439V8.3377L153.446 8.34385Z" fill="var(--fill-0, #FBFAF8)"/>
<path id="Vector_13" d="M177.055 20.348C176.171 20.6673 175.164 21.1584 173.101 21.1584C168.655 21.1584 166.623 18.4567 166.623 14.3858C166.623 10.6771 168.956 8.05525 172.487 8.05525C176.662 8.05525 178.007 11.1008 178.007 15.1227H169.073C169.073 17.6033 171.013 19.2979 173.193 19.2979C174.716 19.2979 176.484 18.512 177.049 18.0454V20.354L177.055 20.348ZM175.557 13.4033C175.557 11.4876 174.427 9.91571 172.438 9.91571C170.178 9.91571 169.245 11.7823 169.073 13.4033H175.551H175.557Z" fill="var(--fill-0, #FBFAF8)"/>
<path id="Vector_14" d="M179.192 18.4076C180.101 18.9971 181.403 19.2918 182.066 19.2918C183.122 19.2918 184.424 18.8497 184.424 17.4989C184.424 15.2147 179.002 15.4112 179.002 11.9052C179.002 9.30172 180.942 8.04913 183.423 8.04913C184.504 8.04913 185.388 8.27017 186.296 8.54034L186.1 10.5543C185.584 10.235 184.209 9.91574 183.668 9.91574C182.49 9.91574 181.458 10.407 181.458 11.4385C181.458 13.9928 186.88 13.256 186.88 17.2533C186.88 19.9304 184.743 21.1584 182.514 21.1584C181.335 21.1584 180.132 21.0356 179.076 20.4707L179.198 18.4076H179.192Z" fill="var(--fill-0, #FBFAF8)"/>
<path id="Vector_15" d="M203.396 19.0954H203.347C202.733 20.0287 201.309 21.1584 199.074 21.1584C195.291 21.1584 193.701 17.7936 193.701 14.3858C193.701 10.978 195.469 8.05525 199.098 8.05525C201.284 8.05525 202.537 8.91486 203.249 10.0692H203.298V2.46154H205.607V20.8698H203.396V19.1015V19.0954ZM199.614 19.2919C202.218 19.2919 203.298 16.713 203.298 14.6253C203.298 12.292 202.095 9.91571 199.59 9.91571C197.084 9.91571 196.102 12.2735 196.151 14.5577C196.102 16.5226 197.133 19.2919 199.614 19.2919Z" fill="var(--fill-0, #FBFAF8)"/>
<path id="Vector_16" d="M218.145 20.348C217.261 20.6672 216.254 21.1584 214.191 21.1584C209.745 21.1584 207.713 18.4567 207.713 14.3858C207.713 10.6771 210.046 8.05524 213.577 8.05524C217.752 8.05524 219.097 11.1008 219.097 15.1226H210.163C210.163 17.6033 212.103 19.2979 214.283 19.2979C215.806 19.2979 217.574 18.512 218.139 18.0454V20.354L218.145 20.348ZM216.647 13.4033C216.647 11.4876 215.517 9.91569 213.528 9.91569C211.268 9.91569 210.335 11.7823 210.163 13.4033H216.641H216.647Z" fill="var(--fill-0, #FBFAF8)"/>
<path id="Vector_17" d="M227.135 3.73254H231.329C234.718 3.73254 237.979 4.2729 237.979 8.37456C237.979 10.4622 236.432 11.9359 234.442 12.2797V12.3288C235.203 12.6236 235.572 12.992 236.112 14.0481L239.354 20.8698H236.554L233.926 14.9323C233.165 13.2621 232.354 13.2621 231.053 13.2621H229.579V20.8698H227.123V3.73869L227.135 3.73254ZM229.591 11.0946H231.679C234.012 11.0946 235.388 10.0631 235.388 8.41752C235.388 6.87019 234.209 5.88776 231.949 5.88776H229.591V11.0885V11.0946Z" fill="var(--fill-0, #FBFAF8)"/>
<path id="Vector_18" d="M243.824 5.55005H241.221V2.94659H243.824V5.55005ZM241.368 8.34998H243.677V20.8699H241.368V8.34998Z" fill="var(--fill-0, #FBFAF8)"/>
<path id="Vector_19" d="M252.464 8.04913C256.271 8.04913 258.819 10.7999 258.819 14.6007C258.819 18.1804 256.215 21.1523 252.464 21.1523C248.712 21.1523 246.084 18.1804 246.084 14.6007C246.084 10.7938 248.638 8.04913 252.464 8.04913ZM252.464 19.2918C255.165 19.2918 256.369 16.8357 256.369 14.6068C256.369 12.2245 254.92 9.91574 252.464 9.91574C250.008 9.91574 248.534 12.2245 248.534 14.6068C248.534 16.8419 249.737 19.2918 252.464 19.2918Z" fill="var(--fill-0, #FBFAF8)"/>
<path id="Vector_20" d="M258.652 24.2285C258.946 24.2777 259.143 24.3022 259.585 24.3022C260.666 24.3022 261.231 23.2707 261.231 21.6497V8.34384H263.539V21.3058C263.539 23.1233 263.466 26.3101 260.003 26.3101C259.511 26.3101 258.897 26.2855 258.578 26.2118L258.652 24.2224V24.2285ZM263.681 5.55005H261.077V2.94659H263.681V5.55005Z" fill="var(--fill-0, #FBFAF8)"/>
<path id="Vector_21" d="M267.364 9.22803C268.519 8.54034 269.894 8.04913 271.49 8.04913C275.076 8.04913 276.519 9.81749 276.519 13.2253V18.4015C276.519 19.826 276.568 20.4892 276.617 20.8576H274.456V19.2366H274.407C273.867 19.9979 272.639 21.1523 270.526 21.1523C267.825 21.1523 265.934 19.9734 265.934 17.2471C265.934 14.1034 269.372 13.1209 271.748 13.1209C272.657 13.1209 273.296 13.1209 274.204 13.17C274.204 11.0087 273.418 9.90346 271.11 9.90346C269.808 9.90346 268.408 10.3947 267.475 11.1806L267.352 9.21575L267.364 9.22803ZM274.21 14.8954C273.719 14.8954 273.228 14.8463 272.737 14.8463C271.484 14.8463 268.39 15.0428 268.39 17.2533C268.39 18.5796 269.667 19.2918 270.723 19.2918C273.007 19.2918 274.21 17.8673 274.21 16.0007V14.8954Z" fill="var(--fill-0, #FBFAF8)"/>
<path id="Vector_22" d="M120.927 16.0375C121.32 15.4788 121.461 14.8218 121.461 14.1586H121.996C121.996 14.9569 121.762 15.7735 121.302 16.3937L122.358 17.5357H121.578L120.921 16.8419C120.417 17.4068 119.767 17.6585 119.042 17.6585C117.998 17.6585 117.01 17.1243 117.01 15.927C117.01 14.9753 117.648 14.4472 118.471 14.1279C118.09 13.692 117.667 13.2253 117.667 12.599C117.667 11.7148 118.52 11.2482 119.337 11.2482C120.074 11.2482 120.792 11.6534 120.792 12.5253C120.792 13.4955 120.049 13.8393 119.3 14.2139L120.933 16.0314L120.927 16.0375ZM118.778 14.4779C118.195 14.7112 117.618 15.2209 117.618 15.9086C117.618 16.7498 118.311 17.1857 119.054 17.1857C119.613 17.1857 120.227 16.9033 120.583 16.4673L118.784 14.4779H118.778ZM118.975 13.9007C119.515 13.6428 120.172 13.3604 120.172 12.6297C120.172 12.0464 119.816 11.7332 119.294 11.7332C118.772 11.7332 118.275 12.0341 118.275 12.6359C118.275 13.1209 118.637 13.5262 118.975 13.8946" fill="var(--fill-0, #FBFAF8)"/>
</g>
</g>
</svg>
